<?xml version="1.0" encoding="UTF-8" standalone="no"?>
<!DOCTYPE svg PUBLIC "-//W3C//DTD SVG 1.1//EN" "http://www.w3.org/Graphics/SVG/1.1/DTD/svg11.dtd">
<svg width="100%" height="100%" viewBox="0 0 1615 1615" version="1.1" xmlns="http://www.w3.org/2000/svg" xmlns:xlink="http://www.w3.org/1999/xlink" xml:space="preserve" xmlns:serif="http://www.serif.com/" style="fill-rule:evenodd;clip-rule:evenodd;stroke-linecap:round;stroke-miterlimit:1;">
    <g transform="matrix(1,0,0,1,-192.840291,-192.840291)">
        <g id="Layer1">
            <g transform="matrix(1,0,0,1,-34.09088,-40.151509)">
                <path d="M531.061,1111.364C606.327,1323.485 863.501,1534.446 1114.394,1515.909C1272.872,1504.2 1552.34,1425.859 1549.243,1498.078C1544.497,1608.744 1272.054,1753.03 1034.091,1753.03C640.642,1753.03 321.212,1433.6 321.212,1040.152C321.212,836.468 415.064,636.17 449.447,691.035C458.319,705.191 467.603,932.523 531.061,1111.364Z" style="fill-opacity:0.22;"/>
            </g>
            <g transform="matrix(1,0,0,1,-34.09088,-40.151509)">
                <circle cx="1034.091" cy="1040.152" r="712.879" style="fill:rgb(219,217,245);fill-opacity:0.27;"/>
                <path d="M1034.091,260.606C1464.334,260.606 1813.636,609.909 1813.636,1040.152C1813.636,1470.394 1464.334,1819.697 1034.091,1819.697C603.848,1819.697 254.545,1470.394 254.545,1040.152C254.545,609.909 603.848,260.606 1034.091,260.606ZM1034.091,327.273C640.642,327.273 321.212,646.703 321.212,1040.152C321.212,1433.6 640.642,1753.03 1034.091,1753.03C1427.539,1753.03 1746.97,1433.6 1746.97,1040.152C1746.97,646.703 1427.539,327.273 1034.091,327.273Z" style="fill:white;fill-opacity:0.55;"/>
            </g>
            <g transform="matrix(0.5,0,0,0.381766,700.000117,340.460146)">
                <path d="M1042.424,314.473C1205.051,343.336 1310.101,438.026 1415.152,536.273C1520.202,634.52 1648.041,814.647 1674.303,978.095" style="fill:none;stroke:white;stroke-opacity:0.18;stroke-width:224.06px;"/>
            </g>
            <g transform="matrix(0.119607,0.233179,-0.13614,0.069832,1498.337315,621.900038)">
                <path d="M1042.424,314.473C1205.051,343.336 1279.281,455.019 1384.331,553.267" style="fill:none;stroke:white;stroke-opacity:0.18;stroke-width:464.47px;"/>
            </g>
        </g>
    </g>
</svg>
